<svg xmlns="http://www.w3.org/2000/svg" viewBox="0 0 512 512" width="512" height="512">
  <defs>
    <linearGradient id="pwaBgGradM" x1="0%" y1="0%" x2="100%" y2="100%">
      <stop offset="0%" stop-color="#052e16" />
      <stop offset="50%" stop-color="#14532d" />
      <stop offset="100%" stop-color="#022c22" />
    </linearGradient>

    <linearGradient id="emGreenGradM" x1="0%" y1="0%" x2="100%" y2="100%">
      <stop offset="0%" stop-color="#4ade80" />
      <stop offset="45%" stop-color="#22c55e" />
      <stop offset="100%" stop-color="#15803d" />
    </linearGradient>

    <linearGradient id="mntDarkGradM" x1="0%" y1="0%" x2="100%" y2="100%">
      <stop offset="0%" stop-color="#166534" />
      <stop offset="100%" stop-color="#052e16" />
    </linearGradient>

    <linearGradient id="limeBrightGradM" x1="0%" y1="0%" x2="0%" y2="100%">
      <stop offset="0%" stop-color="#a7f3d0" />
      <stop offset="100%" stop-color="#22c55e" />
    </linearGradient>

    <linearGradient id="orangeArrowGradM" x1="0%" y1="0%" x2="0%" y2="100%">
      <stop offset="0%" stop-color="#fb923c" />
      <stop offset="100%" stop-color="#ea580c" />
    </linearGradient>
  </defs>

  <!-- Full Bleed Square Background for Maskable Icon -->
  <rect x="0" y="0" width="512" height="512" fill="url(#pwaBgGradM)" />

  <!-- Scaled Emblem inside Safe Zone (80% scale centered) -->
  <g transform="translate(51.2, 51.2) scale(0.8)">
    <circle cx="256" cy="256" r="215" fill="none" stroke="#22c55e" stroke-width="3" opacity="0.25" />

    <path d="M 216 52 A 204 204 0 0 0 52 256 A 204 204 0 0 0 216 460" fill="none" stroke="url(#emGreenGradM)" stroke-width="24" stroke-linecap="round" />
    <path d="M 296 52 A 204 204 0 0 1 460 256 A 204 204 0 0 1 296 460" fill="none" stroke="url(#emGreenGradM)" stroke-width="24" stroke-linecap="round" />

    <polygon points="256,12 288,68 256,54 224,68" fill="url(#orangeArrowGradM)" />
    <polygon points="256,500 288,444 256,458 224,444" fill="url(#orangeArrowGradM)" />

    <polygon points="120,210 184,118 240,210" fill="url(#limeBrightGradM)" />
    <polygon points="184,118 240,210 184,210" fill="url(#mntDarkGradM)" />

    <polygon points="176,210 256,76 336,210" fill="url(#emGreenGradM)" />
    <polygon points="256,76 336,210 256,210" fill="url(#mntDarkGradM)" />

    <polygon points="272,210 328,132 392,210" fill="url(#limeBrightGradM)" opacity="0.9" />
    <polygon points="328,132 392,210 328,210" fill="url(#mntDarkGradM)" opacity="0.9" />

    <path d="M 112 216 L 400 216 L 372 272 L 140 272 Z" fill="url(#emGreenGradM)" />
    <path d="M 208 272 L 304 272 L 286 400 L 256 428 L 226 400 Z" fill="url(#limeBrightGradM)" />

    <polygon points="152,320 190,320 162,410 124,370" fill="url(#emGreenGradM)" />
    <polygon points="360,320 322,320 350,410 388,370" fill="url(#emGreenGradM)" />
  </g>
</svg>
